<?xml version="1.0" standalone="no"?><svg xmlns="http://www.w3.org/2000/svg" viewBox="0 0 1440 320"><path fill="#e83c80" fill-opacity="1" d="M0,128L40,149.3C80,171,160,213,240,197.3C320,181,400,107,480,101.3C560,96,640,160,720,154.7C800,149,880,75,960,69.3C1040,64,1120,128,1200,144C1280,160,1360,128,1400,112L1440,96L1440,320L1400,320C1360,320,1280,320,1200,320C1120,320,1040,320,960,320C880,320,800,320,720,320C640,320,560,320,480,320C400,320,320,320,240,320C160,320,80,320,40,320L0,320Z"></path></svg>